<svg xmlns="http://www.w3.org/2000/svg" height="32" width="32" viewBox="0 0 75.53 75.53" class="h-2 "><path d="M26.17 15.11h0l-13.08 7.55v15.1h0v15.1l13.08-7.54v-15.1-.01h0l13.08-7.54V7.57l-13.08 7.54zm26.14 0v15.1l13.08-7.54V7.57l-13.08 7.54z" fill="#8857ff"/><path d="M52.32 15.12L39.24 7.56l-.01 15.1 13.08 7.55.01-15.09z" fill="#132ad1"/><g fill="#36ffe2"><path d="M52.3 15.12l13.09-7.55L52.31.01 39.23 7.56l13.07 7.56z"/><path d="M39.23 7.56L26.16 0 13.08 7.55.01 15.11l13.07 7.56 13.08-7.56h-.01l13.08-7.55z"/></g><path d="M.01 15.11L0 60.41l26.15 15.11.01-15.1-13.06-7.55-.02-30.2L.01 15.11z" fill="#132ad1"/><path d="M26.17 60.41v.01 15.1l13.08-7.54v-.01-15.1l-13.08 7.54z" fill="#8857ff"/><path d="M39.24 52.87l-13.07-7.56-13.08 7.55 13.07 7.55h0l13.08-7.54h0 0z" fill="#36ffe2"/><path d="M52.31 60.42v15.1l13.08-7.54v-15.1l-13.08 7.54z" fill="#8857ff"/><path d="M52.32 60.43l-13.08-7.56-.01 15.1 13.08 7.56.01-15.1z" fill="#132ad1"/><path d="M52.3 60.43l13.09-7.55-13.08-7.56-13.08 7.55 13.07 7.56z" fill="#36ffe2"/></svg>